<svg width="73" height="74" viewBox="0 0 73 74" fill="none" xmlns="http://www.w3.org/2000/svg">
<circle cx="36.4252" cy="37.0356" r="36.4252" fill="url(#paint0_linear_41_480)"/>
<path d="M34.2687 26.3604C34.7697 26.3604 35.1992 26.5393 35.5571 26.8972C35.8434 27.2551 35.9865 27.6845 35.9865 28.1856C35.9865 28.7582 35.8792 29.3308 35.6644 29.9034L29.974 44.6126C29.6162 45.3283 29.2583 45.901 28.9004 46.3304C28.4709 46.8315 27.7909 47.082 26.8604 47.082L23.3173 47.082C22.7447 47.082 22.3153 46.8673 22.029 46.4378C21.6711 46.0083 21.5637 45.4357 21.7069 44.7199L24.0689 29.474C24.1405 28.615 24.4268 27.8635 24.9278 27.2193C25.4289 26.6467 26.1804 26.3604 27.1825 26.3604L34.2687 26.3604ZM51.4472 26.3604C51.9483 26.3604 52.3777 26.5393 52.7356 26.8972C53.0219 27.2551 53.1651 27.6845 53.1651 28.1856C53.1651 28.7582 53.0577 29.3308 52.843 29.9034L47.1526 44.6126C46.7947 45.3283 46.401 45.901 45.9716 46.3304C45.5421 46.8315 44.8979 47.082 44.039 47.082H40.4959C39.9233 47.082 39.4938 46.8673 39.2075 46.4378C38.8496 46.0083 38.7423 45.4357 38.8854 44.7199L41.2475 29.474C41.319 28.615 41.6054 27.8635 42.1064 27.2193C42.6074 26.6467 43.3232 26.3604 44.2537 26.3604L51.4472 26.3604Z" fill="#091242"/>
<defs>
<linearGradient id="paint0_linear_41_480" x1="-2.06535" y1="16.3946" x2="89.5811" y2="22.9028" gradientUnits="userSpaceOnUse">
<stop stop-color="#FFB629"/>
<stop offset="0.507189" stop-color="#FFDA56"/>
<stop offset="1" stop-color="#FFD7A6"/>
</linearGradient>
</defs>
</svg>
