<svg width="676" height="518" viewBox="0 0 676 518" fill="none" xmlns="http://www.w3.org/2000/svg">
<g filter="url(#filter0_d_122_4215)">
<path d="M36 48.1109C36 29.0784 54.5797 15.5918 72.6755 21.4888L235.738 74.6271C296.344 94.3771 361.656 94.3771 422.262 74.6271L585.325 21.4888C603.42 15.5918 622 29.0784 622 48.1109V447.999H36V48.1109Z" fill="white"/>
</g>
<rect x="248.095" y="9.26465" width="163.616" height="156.199" rx="23" fill="#550EDB"/>
<path d="M365.165 47.2919L375.829 49.4215C376.401 49.5359 376.872 49.9555 377.038 50.5213C377.121 50.7961 377.129 51.0884 377.059 51.3671C376.99 51.6458 376.846 51.9005 376.643 52.1041L367.907 60.8385C366.86 61.8785 365.445 62.4634 363.968 62.4659H356.721L338.523 80.6531C338.871 81.9627 338.934 83.3313 338.711 84.6675C338.487 86.0038 337.981 87.277 337.226 88.4025C336.471 89.528 335.485 90.4798 334.333 91.1946C333.181 91.9094 331.889 92.3707 330.545 92.5478C329.2 92.7249 327.834 92.6138 326.536 92.2218C325.238 91.8298 324.038 91.1659 323.017 90.2744C321.996 89.3829 321.176 88.2843 320.614 87.0516C320.051 85.819 319.757 84.4807 319.753 83.1259C319.753 81.6627 320.089 80.219 320.737 78.9067C321.385 77.5944 322.326 76.4486 323.488 75.558C324.65 74.6675 326.002 74.056 327.438 73.7711C328.875 73.4861 330.358 73.5353 331.772 73.9147L349.976 55.7212V48.4934C349.976 47.0186 350.562 45.601 351.605 44.5585L360.348 35.8241C360.552 35.6215 360.807 35.4778 361.086 35.4084C361.365 35.339 361.657 35.3464 361.932 35.4299C362.499 35.5952 362.919 36.0656 363.033 36.6377L365.165 47.2919Z" fill="white"/>
<path d="M291.12 83.1262C291.127 88.5802 292.304 93.9693 294.573 98.9301C296.841 103.891 300.148 108.308 304.271 111.883C308.393 115.459 313.235 118.109 318.47 119.656C323.705 121.203 329.211 121.61 334.617 120.85C340.023 120.09 345.203 118.181 349.807 115.251C354.411 112.321 358.333 108.438 361.308 103.865C364.283 99.2921 366.242 94.1348 367.052 88.7412C367.862 83.3476 367.505 77.8431 366.005 72.5991C365.794 71.9865 365.711 71.3374 365.759 70.6914C365.808 70.0454 365.987 69.4161 366.287 68.8416C366.586 68.2672 367 67.7597 367.502 67.35C368.005 66.9404 368.585 66.6372 369.208 66.4588C369.832 66.2804 370.485 66.2307 371.128 66.3126C371.771 66.3944 372.391 66.6062 372.95 66.9351C373.508 67.2639 373.994 67.7029 374.378 68.2253C374.761 68.7477 375.034 69.3425 375.18 69.9737C378.085 80.1291 377.533 90.9605 373.611 100.769C369.69 110.577 362.62 118.807 353.511 124.168C344.402 129.528 333.77 131.716 323.282 130.389C312.794 129.061 303.044 124.292 295.562 116.831C288.088 109.357 283.309 99.6153 281.977 89.1348C280.645 78.6543 282.834 68.0286 288.201 58.9258C293.568 49.8231 301.809 42.7589 311.63 38.8422C321.451 34.9256 332.296 34.3783 342.462 37.2864C343.673 37.6399 344.694 38.4578 345.303 39.5613C345.911 40.6647 346.058 41.9641 345.711 43.1753C345.364 44.3866 344.551 45.4113 343.45 46.0255C342.348 46.6397 341.049 46.7934 339.834 46.4531C334.15 44.8222 328.163 44.5332 322.348 45.6089C316.532 46.6846 311.046 49.0955 306.322 52.6515C301.599 56.2076 297.767 60.8114 295.129 66.1C292.491 71.3886 291.118 77.2172 291.12 83.1262Z" fill="white"/>
<path d="M310.209 83.126C310.209 86.6006 311.159 90.0092 312.956 92.9841C314.753 95.959 317.329 98.3873 320.406 100.007C323.483 101.627 326.944 102.377 330.416 102.175C333.888 101.974 337.239 100.83 340.108 98.8657C342.976 96.8966 345.251 94.1815 346.687 91.014C348.122 87.8466 348.664 84.3473 348.252 80.8947C348.141 80.0569 348.256 79.2046 348.584 78.4255C348.912 77.6465 349.442 76.9689 350.119 76.4625C350.796 75.9562 351.596 75.6393 352.437 75.5446C353.278 75.4498 354.128 75.5807 354.902 75.9236C355.675 76.2621 356.344 76.7993 356.841 77.4805C357.339 78.1617 357.647 78.9625 357.733 79.8013C358.424 85.7012 357.26 91.6697 354.402 96.8786C351.544 102.087 347.134 106.278 341.784 108.869C336.433 111.46 330.408 112.323 324.545 111.338C318.682 110.352 313.271 107.568 309.063 103.371C304.856 99.1735 302.061 93.7719 301.066 87.9155C300.07 82.0591 300.925 76.0385 303.51 70.6893C306.095 65.3401 310.283 60.9276 315.493 58.0642C320.702 55.2009 326.674 54.0288 332.581 54.7105C333.213 54.7692 333.828 54.9533 334.388 55.2523C334.948 55.5512 335.443 55.9588 335.844 56.4513C336.244 56.9438 336.542 57.5112 336.72 58.1203C336.899 58.7293 336.953 59.3678 336.881 59.9983C336.809 60.6288 336.612 61.2385 336.301 61.7919C335.99 62.3452 335.572 62.8309 335.07 63.2206C334.569 63.6103 333.995 63.8961 333.382 64.0612C332.769 64.2264 332.128 64.2676 331.499 64.1824C328.824 63.8721 326.114 64.1307 323.547 64.941C320.98 65.7514 318.613 67.0953 316.602 68.8844C314.591 70.6735 312.982 72.8674 311.88 75.3218C310.779 77.7763 310.209 80.4359 310.209 83.126Z" fill="white"/>
<defs>
<filter id="filter0_d_122_4215" x="0" y="0.0898438" width="676" height="517.909" filterUnits="userSpaceOnUse" color-interpolation-filters="sRGB">
<feFlood flood-opacity="0" result="BackgroundImageFix"/>
<feColorMatrix in="SourceAlpha" type="matrix" values="0 0 0 0 0 0 0 0 0 0 0 0 0 0 0 0 0 0 127 0" result="hardAlpha"/>
<feOffset dx="9" dy="25"/>
<feGaussianBlur stdDeviation="22.5"/>
<feComposite in2="hardAlpha" operator="out"/>
<feColorMatrix type="matrix" values="0 0 0 0 0 0 0 0 0 0 0 0 0 0 0 0 0 0 0.1 0"/>
<feBlend mode="normal" in2="BackgroundImageFix" result="effect1_dropShadow_122_4215"/>
<feBlend mode="normal" in="SourceGraphic" in2="effect1_dropShadow_122_4215" result="shape"/>
</filter>
</defs>
</svg>
