<svg width="53" height="64" viewBox="0 0 53 64" fill="none" xmlns="http://www.w3.org/2000/svg">
<path fill-rule="evenodd" clip-rule="evenodd" d="M45.2681 29.445C45.2681 29.445 38.1094 14.3699 38.1094 7.90939C38.1094 3.94828 41.3176 0.731445 45.2681 0.731445C49.2185 0.731445 52.4267 3.94828 52.4267 7.90939C52.4267 14.3717 45.2681 29.445 45.2681 29.445ZM45.2681 3.73538C47.7411 3.73538 49.7485 5.74814 49.7485 8.22786C49.7485 10.7076 47.7411 12.7203 45.2681 12.7203C42.795 12.7203 40.7876 10.7076 40.7876 8.22786C40.7876 5.74814 42.795 3.73538 45.2681 3.73538Z" fill="white"/>
<path fill-rule="evenodd" clip-rule="evenodd" d="M25.2683 63.9139C26.8813 63.1643 28.3783 61.953 29.6969 60.3679C31.0459 58.7452 32.2092 56.7235 33.1121 54.4065L33.13 54.4173C34.677 55.378 36.0883 56.532 37.3338 57.847C34.1291 61.0299 29.9396 63.2197 25.2683 63.9139ZM0.403809 43.0582H7.49825C7.56248 47.0175 8.26732 50.7156 9.44675 53.8948C9.80718 53.6426 10.1783 53.4028 10.5566 53.1738C9.48957 50.1896 8.85611 46.7402 8.79187 43.0564H21.4266V49.9785C17.4565 50.084 13.7452 51.2398 10.5566 53.172C10.7083 53.5925 10.867 54.0022 11.0348 54.403C14.0663 52.5226 17.6082 51.3936 21.4052 51.2774H21.4266V63.4935L21.3784 63.4953C18.6359 63.4953 16.1129 62.0067 14.0556 59.5324C12.8797 58.1172 11.8556 56.3817 11.0348 54.403C10.8653 54.0022 10.7065 53.5925 10.5566 53.172C10.1908 53.3957 9.83215 53.6265 9.48064 53.8698L9.44675 53.893C8.17096 54.7715 6.98975 55.7806 5.92273 56.9006C2.61996 53.2078 0.559044 48.37 0.403809 43.0582ZM6.81663 57.847C7.75696 56.8541 8.79366 55.9523 9.91064 55.158L9.94275 55.1347C10.7974 57.1475 11.8556 58.9151 13.06 60.3661C14.1324 61.656 15.3225 62.6991 16.5983 63.4469C12.8476 62.4665 9.48953 60.5021 6.81663 57.847ZM22.722 51.2791C26.0623 51.374 29.208 52.2578 31.9808 53.7499C31.1226 56.0006 30.0056 57.9633 28.7013 59.5341C26.9848 61.5988 24.9453 62.9764 22.722 63.3736V51.2791ZM43.7448 43.0582C43.5896 48.37 41.5287 53.206 38.2259 56.9024C36.8538 55.4621 35.2943 54.2044 33.5849 53.1703L33.5653 53.1595C34.5895 50.1502 35.1962 46.7151 35.2568 43.0582H43.7448ZM31.9808 53.7517C32.0272 53.7768 32.0736 53.8018 32.12 53.8269C32.1664 53.8519 32.2128 53.877 32.2574 53.902C32.1646 53.8501 32.0718 53.8 31.9808 53.7517ZM22.722 43.0582H33.9632C33.9079 46.4611 33.3601 49.6654 32.4305 52.485L32.4198 52.519C29.5078 50.9857 26.2139 50.0804 22.722 49.982V43.0582ZM38.2259 27.915C41.5287 31.6114 43.5878 36.4474 43.7448 41.7592H35.2586C35.1997 38.1005 34.5931 34.6654 33.5671 31.6579L33.5867 31.6471C35.2943 30.613 36.8556 29.3553 38.2259 27.915ZM5.92273 27.9133C6.97904 29.0225 8.14952 30.0244 9.41281 30.8975L9.44675 30.9208C8.2691 34.1 7.56427 37.7999 7.49825 41.7575H0.403809C0.559044 36.4474 2.61996 31.6114 5.92273 27.9133ZM10.5441 31.6776L10.5566 31.6418C13.7487 33.5722 17.4583 34.7244 21.4266 34.8354V41.7575H8.79187C8.85254 38.0916 9.4842 34.6529 10.5441 31.6776ZM32.3859 32.3181L32.4198 32.3002L32.4305 32.3342C33.3583 35.1538 33.9043 38.3581 33.9632 41.761H22.722V34.8389C26.2014 34.7441 29.4828 33.8442 32.3859 32.3181ZM16.6 21.3704C15.3243 22.1183 14.1341 23.1596 13.0617 24.4513C11.8573 25.9023 10.7992 27.6699 9.94454 29.6827L10.3193 29.9511L11.0366 30.4127C11.8573 28.4357 12.8797 26.7002 14.0574 25.2833C16.1147 22.8089 18.636 21.3204 21.3802 21.3204L21.4284 21.3221V33.5382C17.6314 33.4291 14.0859 32.3038 11.0544 30.4234L11.0366 30.4127L10.3193 29.9511L9.94454 29.6827C8.81506 28.883 7.76767 27.9741 6.81841 26.9704C9.48953 24.3153 12.8476 22.3509 16.6 21.3704ZM22.722 21.4438C24.9453 21.8392 26.9848 23.2186 28.7013 25.2833C30.0056 26.8541 31.1226 28.8168 31.9808 31.0675C29.208 32.556 26.0623 33.4381 22.722 33.5382V21.4438ZM25.2683 20.9053C29.9396 21.5977 34.1291 23.7875 37.3338 26.9722C36.0883 28.2872 34.6752 29.443 33.13 30.4019L33.1121 30.4127C32.2074 28.0957 31.0459 26.074 29.6969 24.4513C28.3783 22.8661 26.8813 21.6567 25.2683 20.9053Z" fill="white"/>
<path fill-rule="evenodd" clip-rule="evenodd" d="M0.403809 43.0583H7.49825C7.56248 47.0176 8.26732 50.7157 9.44675 53.895C9.80718 53.6427 10.1783 53.403 10.5566 53.174C9.48957 50.1897 8.85611 46.7403 8.79188 43.0565H21.4266V49.9786C17.4565 50.0842 13.7452 51.2399 10.5566 53.1722C10.7083 53.5926 10.867 54.0023 11.0348 54.4031C14.0663 52.5227 17.6082 51.3938 21.4052 51.2775H21.4266V63.4936L21.3784 63.4954C18.6359 63.4954 16.1129 62.0068 14.0556 59.5325C12.8797 58.1173 11.8556 56.3819 11.0348 54.4031C10.8653 54.0023 10.7065 53.5926 10.5566 53.1722C10.1908 53.3958 9.83215 53.6266 9.48064 53.8699L9.44675 53.8932C8.17096 54.7716 6.98975 55.7807 5.92273 56.9007C2.61996 53.2079 0.559044 48.372 0.403809 43.0583ZM6.81663 57.8471C7.75696 56.8542 8.79366 55.9525 9.91064 55.1581L9.94275 55.1348C10.7974 57.1476 11.8556 58.9152 13.06 60.3662C14.1324 61.6562 15.3225 62.6992 16.5983 63.4471C12.8476 62.4684 9.48953 60.504 6.81663 57.8471ZM5.92273 27.9152C6.97904 29.0244 8.14952 30.0263 9.41281 30.8994L9.44675 30.9227C8.2691 34.1019 7.56427 37.8018 7.49825 41.7594H0.403809C0.559044 36.4493 2.61996 31.6115 5.92273 27.9152ZM10.5441 31.6777L10.5566 31.6419C13.7487 33.5724 17.4583 34.7246 21.4266 34.8355V41.7576H8.79188C8.85254 38.0917 9.4842 34.653 10.5441 31.6777ZM16.6 21.3724C15.3243 22.1202 14.1341 23.1615 13.0617 24.4532C11.8573 25.9042 10.7992 27.6718 9.94454 29.6846L10.3193 29.953L11.0366 30.4146C11.8573 28.4376 12.8797 26.7021 14.0574 25.2852C16.1147 22.8108 18.636 21.3223 21.3802 21.3223L21.4284 21.3241V33.5402C17.6314 33.431 14.0859 32.3057 11.0544 30.4253L11.0366 30.4146L10.3193 29.953L9.94454 29.6846C8.81506 28.8849 7.76767 27.976 6.81841 26.9723C9.48953 24.3155 12.8476 22.3528 16.6 21.3724Z" fill="white"/>
</svg>
