<svg width="117" height="116" viewBox="0 0 117 116" fill="none" xmlns="http://www.w3.org/2000/svg">
<rect x="0.685547" width="115.686" height="115.998" rx="23" fill="#0EDB91"/>
<path d="M86.6741 30.5346C86.4074 30.2423 86.0842 30.007 85.7241 29.8429C85.3639 29.6788 84.9743 29.5894 84.5787 29.5799C84.183 29.5705 83.7896 29.6413 83.422 29.788C83.0545 29.9348 82.7204 30.1544 82.4401 30.4337L80.0083 32.8575L84.1494 36.988L86.54 34.6093C87.0841 34.0788 87.4018 33.3585 87.4268 32.599C87.4519 31.8395 87.1821 31.0998 86.6741 30.5346ZM58.5697 68.6253H48.375V58.4306L49.6234 57.1848L67.9702 38.8753H31.375V85.6253H78.125V49.0301L59.8155 67.3768L58.5697 68.6253ZM78.125 43.0137L82.4799 38.6495L78.3508 34.5203L73.9879 38.8753H78.125V43.0137Z" fill="white"/>
<path d="M52.625 64.375H56.8073L78.125 43.0134V38.875H73.9879L52.625 60.1927V64.375Z" fill="white"/>
</svg>
