<svg width="702" height="359" viewBox="0 0 702 359" fill="none" xmlns="http://www.w3.org/2000/svg">
<ellipse opacity="0.2" cx="15.4853" cy="102.913" rx="15.4853" ry="14.36" fill="#EE3939"/>
<ellipse cx="15.4854" cy="102.913" rx="6.45221" ry="5.98333" fill="#EE3939"/>
<g clip-path="url(#clip0_122_4099)">
<path fill-rule="evenodd" clip-rule="evenodd" d="M15.4852 82.8685C12.8126 82.8685 10.6461 84.8776 10.6461 87.356C10.6461 89.8344 12.8126 91.8435 15.4852 91.8435C18.1578 91.8435 20.3244 89.8344 20.3244 87.356C20.3244 84.8776 18.1578 82.8685 15.4852 82.8685ZM12.5817 87.356C12.5817 85.869 13.8817 84.6635 15.4852 84.6635C17.0888 84.6635 18.3887 85.869 18.3887 87.356C18.3887 88.843 17.0888 90.0485 15.4852 90.0485C13.8817 90.0485 12.5817 88.843 12.5817 87.356Z" fill="#EE3939"/>
<path fill-rule="evenodd" clip-rule="evenodd" d="M15.4852 75.6885C9.18355 75.6885 4.19385 80.7657 4.19385 86.8877C4.19385 88.8511 5.24569 91.1631 6.56908 93.3328C7.9139 95.5375 9.63032 97.7385 11.1352 99.5181L11.1854 99.5774C11.9199 100.446 12.5456 101.186 13.1524 101.697C13.8144 102.255 14.5444 102.62 15.4852 102.62C16.426 102.62 17.156 102.255 17.818 101.697C18.4248 101.186 19.0505 100.446 19.7851 99.5774L19.8352 99.5181C21.3401 97.7385 23.0565 95.5375 24.4013 93.3328C25.7247 91.1631 26.7766 88.8511 26.7766 86.8877C26.7766 80.7657 21.7869 75.6885 15.4852 75.6885ZM6.12951 86.8877C6.12951 81.6308 10.3838 77.4835 15.4852 77.4835C20.5866 77.4835 24.8409 81.6308 24.8409 86.8877C24.8409 88.3554 24.0155 90.3194 22.7165 92.449C21.4389 94.5436 19.7878 96.6653 18.3121 98.4104C17.5133 99.3549 16.9874 99.9719 16.5165 100.369C16.087 100.73 15.8003 100.825 15.4852 100.825C15.1701 100.825 14.8834 100.73 14.4539 100.369C13.983 99.9719 13.4571 99.3549 12.6583 98.4104C11.1826 96.6653 9.53148 94.5436 8.2539 92.449C6.9549 90.3194 6.12951 88.3554 6.12951 86.8877Z" fill="#EE3939"/>
</g>
<ellipse opacity="0.2" cx="101.945" cy="302.756" rx="15.4853" ry="14.36" fill="#EE3939"/>
<ellipse cx="101.945" cy="302.757" rx="6.45221" ry="5.98333" fill="#EE3939"/>
<path fill-rule="evenodd" clip-rule="evenodd" d="M101.945 280.319C99.2721 280.319 97.1055 282.328 97.1055 284.806C97.1055 287.285 99.2721 289.294 101.945 289.294C104.617 289.294 106.784 287.285 106.784 284.806C106.784 282.328 104.617 280.319 101.945 280.319ZM99.0412 284.806C99.0412 283.319 100.341 282.114 101.945 282.114C103.548 282.114 104.848 283.319 104.848 284.806C104.848 286.293 103.548 287.499 101.945 287.499C100.341 287.499 99.0412 286.293 99.0412 284.806Z" fill="#EE3939"/>
<path fill-rule="evenodd" clip-rule="evenodd" d="M101.945 273.139C95.643 273.139 90.6533 278.216 90.6533 284.338C90.6533 286.301 91.7052 288.613 93.0286 290.783C94.3734 292.988 96.0898 295.189 97.5946 296.968L97.6448 297.028C98.3794 297.896 99.0051 298.636 99.6119 299.147C100.274 299.705 101.004 300.07 101.945 300.07C102.885 300.07 103.615 299.705 104.277 299.147C104.884 298.636 105.51 297.896 106.245 297.028L106.295 296.968C107.8 295.189 109.516 292.988 110.861 290.783C112.184 288.613 113.236 286.301 113.236 284.338C113.236 278.216 108.246 273.139 101.945 273.139ZM92.589 284.338C92.589 279.081 96.8433 274.934 101.945 274.934C107.046 274.934 111.3 279.081 111.3 284.338C111.3 285.806 110.475 287.77 109.176 289.899C107.898 291.994 106.247 294.115 104.772 295.861C103.973 296.805 103.447 297.422 102.976 297.819C102.546 298.181 102.26 298.275 101.945 298.275C101.63 298.275 101.343 298.181 100.913 297.819C100.442 297.422 99.9166 296.805 99.1178 295.861C97.6421 294.115 95.9909 291.994 94.7134 289.899C93.4144 287.77 92.589 285.806 92.589 284.338Z" fill="#EE3939"/>
<ellipse opacity="0.2" cx="300.673" cy="199.843" rx="15.4853" ry="14.36" fill="#EE3939"/>
<ellipse cx="300.673" cy="199.844" rx="6.45221" ry="5.98333" fill="#EE3939"/>
<g clip-path="url(#clip1_122_4099)">
<path fill-rule="evenodd" clip-rule="evenodd" d="M300.673 179.799C298 179.799 295.834 181.808 295.834 184.287C295.834 186.765 298 188.774 300.673 188.774C303.345 188.774 305.512 186.765 305.512 184.287C305.512 181.808 303.345 179.799 300.673 179.799ZM297.769 184.287C297.769 182.8 299.069 181.594 300.673 181.594C302.276 181.594 303.576 182.8 303.576 184.287C303.576 185.774 302.276 186.979 300.673 186.979C299.069 186.979 297.769 185.774 297.769 184.287Z" fill="#EE3939"/>
<path fill-rule="evenodd" clip-rule="evenodd" d="M300.673 172.619C294.371 172.619 289.381 177.696 289.381 183.818C289.381 185.782 290.433 188.094 291.757 190.263C293.101 192.468 294.818 194.669 296.323 196.449L296.373 196.508C297.107 197.377 297.733 198.117 298.34 198.628C299.002 199.186 299.732 199.551 300.673 199.551C301.614 199.551 302.344 199.186 303.006 198.628C303.612 198.117 304.238 197.377 304.973 196.508L305.023 196.449C306.528 194.669 308.244 192.468 309.589 190.263C310.912 188.094 311.964 185.782 311.964 183.818C311.964 177.696 306.974 172.619 300.673 172.619ZM291.317 183.818C291.317 178.561 295.571 174.414 300.673 174.414C305.774 174.414 310.028 178.561 310.028 183.818C310.028 185.286 309.203 187.25 307.904 189.38C306.626 191.474 304.975 193.596 303.5 195.341C302.701 196.286 302.175 196.903 301.704 197.299C301.275 197.661 300.988 197.756 300.673 197.756C300.358 197.756 300.071 197.661 299.641 197.299C299.17 196.903 298.645 196.286 297.846 195.341C296.37 193.596 294.719 191.474 293.441 189.38C292.142 187.25 291.317 185.286 291.317 183.818Z" fill="#EE3939"/>
</g>
<ellipse opacity="0.2" cx="423.265" cy="132.83" rx="15.4853" ry="14.36" fill="#EE3939"/>
<ellipse cx="423.265" cy="132.83" rx="6.45221" ry="5.98333" fill="#EE3939"/>
<g clip-path="url(#clip2_122_4099)">
<path fill-rule="evenodd" clip-rule="evenodd" d="M423.265 112.785C420.592 112.785 418.425 114.795 418.425 117.273C418.425 119.751 420.592 121.76 423.265 121.76C425.937 121.76 428.104 119.751 428.104 117.273C428.104 114.795 425.937 112.785 423.265 112.785ZM420.361 117.273C420.361 115.786 421.661 114.58 423.265 114.58C424.868 114.58 426.168 115.786 426.168 117.273C426.168 118.76 424.868 119.965 423.265 119.965C421.661 119.965 420.361 118.76 420.361 117.273Z" fill="#EE3939"/>
<path fill-rule="evenodd" clip-rule="evenodd" d="M423.265 105.605C416.963 105.605 411.973 110.683 411.973 116.805C411.973 118.768 413.025 121.08 414.348 123.25C415.693 125.455 417.41 127.656 418.914 129.435L418.965 129.494C419.699 130.363 420.325 131.103 420.932 131.614C421.594 132.172 422.324 132.537 423.265 132.537C424.205 132.537 424.935 132.172 425.597 131.614C426.204 131.103 426.83 130.363 427.564 129.494L427.615 129.435C429.119 127.656 430.836 125.455 432.181 123.25C433.504 121.08 434.556 118.768 434.556 116.805C434.556 110.683 429.566 105.605 423.265 105.605ZM413.909 116.805C413.909 111.548 418.163 107.4 423.265 107.4C428.366 107.4 432.62 111.548 432.62 116.805C432.62 118.272 431.795 120.236 430.496 122.366C429.218 124.461 427.567 126.582 426.091 128.327C425.293 129.272 424.767 129.889 424.296 130.286C423.866 130.647 423.58 130.742 423.265 130.742C422.949 130.742 422.663 130.647 422.233 130.286C421.762 129.889 421.236 129.272 420.438 128.327C418.962 126.582 417.311 124.461 416.033 122.366C414.734 120.236 413.909 118.272 413.909 116.805Z" fill="#EE3939"/>
</g>
<ellipse opacity="0.2" cx="483.915" cy="52.653" rx="15.4853" ry="14.36" fill="#EE3939"/>
<ellipse cx="483.916" cy="52.6533" rx="6.45221" ry="5.98333" fill="#EE3939"/>
<g clip-path="url(#clip3_122_4099)">
<path fill-rule="evenodd" clip-rule="evenodd" d="M483.915 32.6087C481.243 32.6087 479.076 34.6178 479.076 37.0962C479.076 39.5746 481.243 41.5837 483.915 41.5837C486.588 41.5837 488.755 39.5746 488.755 37.0962C488.755 34.6178 486.588 32.6087 483.915 32.6087ZM481.012 37.0962C481.012 35.6092 482.312 34.4037 483.915 34.4037C485.519 34.4037 486.819 35.6092 486.819 37.0962C486.819 38.5832 485.519 39.7887 483.915 39.7887C482.312 39.7887 481.012 38.5832 481.012 37.0962Z" fill="#EE3939"/>
<path fill-rule="evenodd" clip-rule="evenodd" d="M483.915 25.4287C477.614 25.4287 472.624 30.5059 472.624 36.6279C472.624 38.5913 473.676 40.9033 474.999 43.073C476.344 45.2778 478.06 47.4788 479.565 49.2583L479.616 49.3177C480.35 50.1864 480.976 50.9264 481.583 51.4375C482.245 51.9952 482.975 52.3603 483.915 52.3603C484.856 52.3603 485.586 51.9952 486.248 51.4375C486.855 50.9264 487.481 50.1863 488.215 49.3176L488.265 49.2583C489.77 47.4788 491.487 45.2778 492.832 43.073C494.155 40.9033 495.207 38.5913 495.207 36.6279C495.207 30.5059 490.217 25.4287 483.915 25.4287ZM474.56 36.6279C474.56 31.371 478.814 27.2237 483.915 27.2237C489.017 27.2237 493.271 31.371 493.271 36.6279C493.271 38.0957 492.446 40.0596 491.147 42.1893C489.869 44.2838 488.218 46.4055 486.742 48.1506C485.944 49.0952 485.418 49.7122 484.947 50.1089C484.517 50.4706 484.23 50.5653 483.915 50.5653C483.6 50.5653 483.314 50.4706 482.884 50.1089C482.413 49.7122 481.887 49.0952 481.089 48.1506C479.613 46.4055 477.962 44.2838 476.684 42.1893C475.385 40.0596 474.56 38.0957 474.56 36.6279Z" fill="#EE3939"/>
</g>
<ellipse opacity="0.2" cx="618.122" cy="94.5368" rx="15.4853" ry="14.36" fill="#EE3939"/>
<ellipse cx="618.122" cy="94.537" rx="6.45221" ry="5.98333" fill="#EE3939"/>
<g clip-path="url(#clip4_122_4099)">
<path fill-rule="evenodd" clip-rule="evenodd" d="M618.121 74.4925C615.449 74.4925 613.282 76.5016 613.282 78.98C613.282 81.4584 615.449 83.4675 618.121 83.4675C620.794 83.4675 622.961 81.4584 622.961 78.98C622.961 76.5016 620.794 74.4925 618.121 74.4925ZM615.218 78.98C615.218 77.493 616.518 76.2875 618.121 76.2875C619.725 76.2875 621.025 77.493 621.025 78.98C621.025 80.467 619.725 81.6725 618.121 81.6725C616.518 81.6725 615.218 80.467 615.218 78.98Z" fill="#EE3939"/>
<path fill-rule="evenodd" clip-rule="evenodd" d="M618.121 67.3125C611.82 67.3125 606.83 72.3897 606.83 78.5117C606.83 80.4751 607.882 82.7871 609.205 84.9568C610.55 87.1616 612.267 89.3625 613.771 91.1421L613.822 91.2014C614.556 92.0701 615.182 92.8102 615.789 93.3213C616.451 93.8789 617.181 94.2441 618.121 94.2441C619.062 94.2441 619.792 93.8789 620.454 93.3213C621.061 92.8102 621.687 92.0701 622.421 91.2014L622.471 91.1421C623.976 89.3625 625.693 87.1616 627.038 84.9568C628.361 82.7871 629.413 80.4751 629.413 78.5117C629.413 72.3897 624.423 67.3125 618.121 67.3125ZM608.766 78.5117C608.766 73.2548 613.02 69.1075 618.121 69.1075C623.223 69.1075 627.477 73.2548 627.477 78.5117C627.477 79.9794 626.652 81.9434 625.353 84.073C624.075 86.1676 622.424 88.2893 620.948 90.0344C620.15 90.9789 619.624 91.5959 619.153 91.9926C618.723 92.3544 618.437 92.4491 618.121 92.4491C617.806 92.4491 617.52 92.3544 617.09 91.9926C616.619 91.5959 616.093 90.9789 615.295 90.0344C613.819 88.2893 612.168 86.1676 610.89 84.073C609.591 81.9434 608.766 79.9794 608.766 78.5117Z" fill="#EE3939"/>
</g>
<ellipse opacity="0.2" cx="552.309" cy="163.943" rx="15.4853" ry="14.36" fill="#EE3939"/>
<ellipse cx="552.309" cy="163.943" rx="6.45221" ry="5.98333" fill="#EE3939"/>
<g clip-path="url(#clip5_122_4099)">
<path fill-rule="evenodd" clip-rule="evenodd" d="M552.309 143.899C549.636 143.899 547.47 145.908 547.47 148.386C547.47 150.865 549.636 152.874 552.309 152.874C554.982 152.874 557.148 150.865 557.148 148.386C557.148 145.908 554.982 143.899 552.309 143.899ZM549.405 148.386C549.405 146.899 550.705 145.694 552.309 145.694C553.912 145.694 555.212 146.899 555.212 148.386C555.212 149.873 553.912 151.079 552.309 151.079C550.705 151.079 549.405 149.873 549.405 148.386Z" fill="#EE3939"/>
<path fill-rule="evenodd" clip-rule="evenodd" d="M552.309 136.719C546.007 136.719 541.018 141.796 541.018 147.918C541.018 149.881 542.069 152.193 543.393 154.363C544.738 156.568 546.454 158.769 547.959 160.548L548.009 160.608C548.744 161.476 549.369 162.216 549.976 162.728C550.638 163.285 551.368 163.65 552.309 163.65C553.25 163.65 553.98 163.285 554.642 162.728C555.249 162.216 555.874 161.476 556.609 160.608L556.659 160.548C558.164 158.769 559.88 156.568 561.225 154.363C562.548 152.193 563.6 149.881 563.6 147.918C563.6 141.796 558.611 136.719 552.309 136.719ZM542.953 147.918C542.953 142.661 547.208 138.514 552.309 138.514C557.41 138.514 561.665 142.661 561.665 147.918C561.665 149.386 560.839 151.35 559.54 153.479C558.263 155.574 556.612 157.696 555.136 159.441C554.337 160.385 553.811 161.002 553.34 161.399C552.911 161.761 552.624 161.855 552.309 161.855C551.994 161.855 551.707 161.761 551.278 161.399C550.807 161.002 550.281 160.385 549.482 159.441C548.006 157.696 546.355 155.574 545.078 153.479C543.779 151.35 542.953 149.386 542.953 147.918Z" fill="#EE3939"/>
</g>
<ellipse opacity="0.2" cx="686.515" cy="344.639" rx="15.4853" ry="14.36" fill="#EE3939"/>
<ellipse cx="686.515" cy="344.64" rx="6.45221" ry="5.98333" fill="#EE3939"/>
<g clip-path="url(#clip6_122_4099)">
<path fill-rule="evenodd" clip-rule="evenodd" d="M686.515 324.595C683.842 324.595 681.675 326.604 681.675 329.083C681.675 331.561 683.842 333.57 686.515 333.57C689.187 333.57 691.354 331.561 691.354 329.083C691.354 326.604 689.187 324.595 686.515 324.595ZM683.611 329.083C683.611 327.596 684.911 326.39 686.515 326.39C688.118 326.39 689.418 327.596 689.418 329.083C689.418 330.57 688.118 331.775 686.515 331.775C684.911 331.775 683.611 330.57 683.611 329.083Z" fill="#EE3939"/>
<path fill-rule="evenodd" clip-rule="evenodd" d="M686.515 317.415C680.213 317.415 675.223 322.492 675.223 328.614C675.223 330.578 676.275 332.89 677.598 335.059C678.943 337.264 680.66 339.465 682.164 341.245L682.215 341.304C682.949 342.173 683.575 342.913 684.182 343.424C684.844 343.981 685.574 344.347 686.515 344.347C687.455 344.347 688.185 343.981 688.847 343.424C689.454 342.913 690.08 342.173 690.814 341.304L690.865 341.245C692.369 339.465 694.086 337.264 695.431 335.059C696.754 332.89 697.806 330.578 697.806 328.614C697.806 322.492 692.816 317.415 686.515 317.415ZM677.159 328.614C677.159 323.357 681.413 319.21 686.515 319.21C691.616 319.21 695.87 323.357 695.87 328.614C695.87 330.082 695.045 332.046 693.746 334.176C692.468 336.27 690.817 338.392 689.341 340.137C688.543 341.081 688.017 341.698 687.546 342.095C687.116 342.457 686.83 342.552 686.515 342.552C686.199 342.552 685.913 342.457 685.483 342.095C685.012 341.698 684.486 341.081 683.688 340.137C682.212 338.392 680.561 336.27 679.283 334.176C677.984 332.046 677.159 330.082 677.159 328.614Z" fill="#EE3939"/>
</g>
<ellipse opacity="0.2" cx="331.643" cy="86.1598" rx="15.4853" ry="14.36" fill="#EE3939"/>
<ellipse cx="331.644" cy="86.1601" rx="6.45221" ry="5.98333" fill="#EE3939"/>
<g clip-path="url(#clip7_122_4099)">
<path fill-rule="evenodd" clip-rule="evenodd" d="M331.643 66.1155C328.971 66.1155 326.804 68.1247 326.804 70.603C326.804 73.0814 328.971 75.0905 331.643 75.0905C334.316 75.0905 336.483 73.0814 336.483 70.603C336.483 68.1247 334.316 66.1155 331.643 66.1155ZM328.74 70.603C328.74 69.116 330.04 67.9105 331.643 67.9105C333.247 67.9105 334.547 69.116 334.547 70.603C334.547 72.0901 333.247 73.2955 331.643 73.2955C330.04 73.2955 328.74 72.0901 328.74 70.603Z" fill="#EE3939"/>
<path fill-rule="evenodd" clip-rule="evenodd" d="M331.643 58.9355C325.342 58.9355 320.352 64.0127 320.352 70.1348C320.352 72.0982 321.404 74.4102 322.727 76.5798C324.072 78.7846 325.789 80.9856 327.293 82.7651L327.344 82.8245C328.078 83.6932 328.704 84.4332 329.311 84.9444C329.973 85.502 330.703 85.8671 331.643 85.8671C332.584 85.8671 333.314 85.502 333.976 84.9444C334.583 84.4332 335.209 83.6932 335.943 82.8245L335.993 82.7651C337.498 80.9856 339.215 78.7846 340.56 76.5798C341.883 74.4102 342.935 72.0982 342.935 70.1348C342.935 64.0127 337.945 58.9355 331.643 58.9355ZM322.288 70.1348C322.288 64.8779 326.542 60.7305 331.643 60.7305C336.745 60.7305 340.999 64.8779 340.999 70.1348C340.999 71.6025 340.174 73.5664 338.875 75.6961C337.597 77.7906 335.946 79.9123 334.47 81.6575C333.672 82.602 333.146 83.219 332.675 83.6157C332.245 83.9775 331.959 84.0721 331.643 84.0721C331.328 84.0721 331.042 83.9775 330.612 83.6157C330.141 83.219 329.615 82.602 328.817 81.6575C327.341 79.9123 325.69 77.7906 324.412 75.6961C323.113 73.5664 322.288 71.6025 322.288 70.1348Z" fill="#EE3939"/>
</g>
<ellipse opacity="0.2" cx="358.743" cy="299.167" rx="15.4853" ry="14.36" fill="#EE3939"/>
<ellipse cx="358.743" cy="299.167" rx="6.45221" ry="5.98333" fill="#EE3939"/>
<g clip-path="url(#clip8_122_4099)">
<path fill-rule="evenodd" clip-rule="evenodd" d="M358.743 279.122C356.07 279.122 353.903 281.132 353.903 283.61C353.903 286.088 356.07 288.097 358.743 288.097C361.415 288.097 363.582 286.088 363.582 283.61C363.582 281.132 361.415 279.122 358.743 279.122ZM355.839 283.61C355.839 282.123 357.139 280.917 358.743 280.917C360.346 280.917 361.646 282.123 361.646 283.61C361.646 285.097 360.346 286.302 358.743 286.302C357.139 286.302 355.839 285.097 355.839 283.61Z" fill="#EE3939"/>
<path fill-rule="evenodd" clip-rule="evenodd" d="M358.743 271.942C352.441 271.942 347.451 277.02 347.451 283.142C347.451 285.105 348.503 287.417 349.826 289.587C351.171 291.791 352.888 293.992 354.392 295.772L354.443 295.831C355.177 296.7 355.803 297.44 356.41 297.951C357.072 298.509 357.802 298.874 358.743 298.874C359.683 298.874 360.413 298.509 361.075 297.951C361.682 297.44 362.308 296.7 363.042 295.831L363.093 295.772C364.597 293.992 366.314 291.791 367.659 289.587C368.982 287.417 370.034 285.105 370.034 283.142C370.034 277.02 365.044 271.942 358.743 271.942ZM349.387 283.142C349.387 277.885 353.641 273.737 358.743 273.737C363.844 273.737 368.098 277.885 368.098 283.142C368.098 284.609 367.273 286.573 365.974 288.703C364.696 290.797 363.045 292.919 361.569 294.664C360.771 295.609 360.245 296.226 359.774 296.623C359.344 296.984 359.058 297.079 358.743 297.079C358.427 297.079 358.141 296.984 357.711 296.623C357.24 296.226 356.714 295.609 355.916 294.664C354.44 292.919 352.789 290.797 351.511 288.703C350.212 286.573 349.387 284.609 349.387 283.142Z" fill="#EE3939"/>
</g>
<ellipse opacity="0.2" cx="198.728" cy="27.5231" rx="15.4853" ry="14.36" fill="#EE3939"/>
<ellipse cx="198.728" cy="27.5234" rx="6.45221" ry="5.98333" fill="#EE3939"/>
<path fill-rule="evenodd" clip-rule="evenodd" d="M198.728 7.47883C196.055 7.47883 193.889 9.48795 193.889 11.9663C193.889 14.4447 196.055 16.4538 198.728 16.4538C201.4 16.4538 203.567 14.4447 203.567 11.9663C203.567 9.48795 201.4 7.47883 198.728 7.47883ZM195.824 11.9663C195.824 10.4793 197.124 9.27383 198.728 9.27383C200.331 9.27383 201.631 10.4793 201.631 11.9663C201.631 13.4534 200.331 14.6588 198.728 14.6588C197.124 14.6588 195.824 13.4534 195.824 11.9663Z" fill="#EE3939"/>
<path fill-rule="evenodd" clip-rule="evenodd" d="M198.728 0.298828C192.426 0.298828 187.437 5.37601 187.437 11.4981C187.437 13.4615 188.488 15.7735 189.812 17.9431C191.157 20.1479 192.873 22.3489 194.378 24.1284L194.428 24.1878C195.163 25.0565 195.788 25.7965 196.395 26.3076C197.057 26.8653 197.787 27.2304 198.728 27.2304C199.669 27.2304 200.399 26.8653 201.061 26.3076C201.667 25.7965 202.293 25.0565 203.028 24.1877L203.078 24.1284C204.583 22.3489 206.299 20.1479 207.644 17.9431C208.967 15.7735 210.019 13.4615 210.019 11.4981C210.019 5.37601 205.03 0.298828 198.728 0.298828ZM189.372 11.4981C189.372 6.24113 193.626 2.09383 198.728 2.09383C203.829 2.09383 208.084 6.24113 208.084 11.4981C208.084 12.9658 207.258 14.9297 205.959 17.0594C204.682 19.1539 203.03 21.2756 201.555 23.0207C200.756 23.9653 200.23 24.5823 199.759 24.979C199.33 25.3408 199.043 25.4354 198.728 25.4354C198.413 25.4354 198.126 25.3408 197.697 24.979C197.226 24.5823 196.7 23.9653 195.901 23.0207C194.425 21.2756 192.774 19.1539 191.497 17.0594C190.198 14.9297 189.372 12.9658 189.372 11.4981Z" fill="#EE3939"/>
<defs>
<clipPath id="clip0_122_4099">
<rect width="30.9706" height="28.72" fill="white" transform="translate(0 75.3896)"/>
</clipPath>
<clipPath id="clip1_122_4099">
<rect width="30.9706" height="28.72" fill="white" transform="translate(285.188 172.32)"/>
</clipPath>
<clipPath id="clip2_122_4099">
<rect width="30.9706" height="28.72" fill="white" transform="translate(407.779 105.307)"/>
</clipPath>
<clipPath id="clip3_122_4099">
<rect width="30.9706" height="28.72" fill="white" transform="translate(468.43 25.1299)"/>
</clipPath>
<clipPath id="clip4_122_4099">
<rect width="30.9706" height="28.72" fill="white" transform="translate(602.636 67.0137)"/>
</clipPath>
<clipPath id="clip5_122_4099">
<rect width="30.9706" height="28.72" fill="white" transform="translate(536.824 136.42)"/>
</clipPath>
<clipPath id="clip6_122_4099">
<rect width="30.9706" height="28.72" fill="white" transform="translate(671.029 317.116)"/>
</clipPath>
<clipPath id="clip7_122_4099">
<rect width="30.9706" height="28.72" fill="white" transform="translate(316.158 58.6367)"/>
</clipPath>
<clipPath id="clip8_122_4099">
<rect width="30.9706" height="28.72" fill="white" transform="translate(343.257 271.644)"/>
</clipPath>
</defs>
</svg>
