<svg width="85" height="116" viewBox="0 0 85 116" fill="none" xmlns="http://www.w3.org/2000/svg">
<path d="M34.4214 7.16494V1" stroke="#1C1F35" stroke-width="2" stroke-linecap="round" stroke-linejoin="round"/>
<path d="M59.0812 35.9342C55.3309 49.0347 37.9663 53.6071 34.8838 54.3263C34.5804 54.4035 34.2625 54.4035 33.9591 54.3263C30.8766 53.6071 13.5121 49.0347 9.76172 35.9342V27.1492C9.76168 26.7165 9.89824 26.2948 10.1519 25.9443C10.4056 25.5937 10.7635 25.3322 11.1745 25.197L33.7793 17.6449C34.1977 17.5161 34.6452 17.5161 35.0637 17.6449L57.6684 25.197C58.0795 25.3322 58.4373 25.5937 58.691 25.9443C58.9447 26.2948 59.0813 26.7165 59.0812 27.1492V35.9342Z" stroke="#1C1F35" stroke-width="2" stroke-linecap="round" stroke-linejoin="round"/>
<path d="M34.8893 47.6652C32.4505 47.1036 18.7119 43.5341 15.7446 33.3066" stroke="#1C1F35" stroke-width="2" stroke-linecap="round" stroke-linejoin="round"/>
<path d="M15.7446 9.98291V23.1362L34.291 16.5553L52.8374 23.1362V9.98291C52.8374 8.32606 51.4943 6.98291 49.8374 6.98291H18.7446C17.0878 6.98291 15.7446 8.32606 15.7446 9.98291Z" fill="#FFD550" stroke="#1C1F35" stroke-width="2"/>
<path d="M34.4214 37.99V17.543" stroke="#1C1F35" stroke-width="2" stroke-linecap="round" stroke-linejoin="round"/>
<path d="M39.6753 36.8963L39.6753 28.5205" stroke="#1C1F35" stroke-width="2" stroke-linecap="round" stroke-linejoin="round"/>
<path d="M20.5308 17.7518V11.769" stroke="#1C1F35" stroke-width="2" stroke-linecap="round" stroke-linejoin="round"/>
<path d="M57.6235 20.1449V9.37598" stroke="#1C1F35" stroke-width="2" stroke-linecap="round" stroke-linejoin="round"/>
</svg>
