<svg width="77" height="116" viewBox="0 0 77 116" fill="none" xmlns="http://www.w3.org/2000/svg">
<path d="M2.09521 45H54.4762" stroke="#141414" stroke-width="2" stroke-linecap="round" stroke-linejoin="round"/>
<path d="M32.4759 45V2.91304C32.4759 2.40567 32.2709 1.91908 31.906 1.56032C31.5412 1.20155 31.0463 1 30.5303 1H7.18337C6.66737 1 6.17251 1.20155 5.80764 1.56032C5.44277 1.91908 5.23779 2.40567 5.23779 2.91304V45" stroke="#141414" stroke-width="2" stroke-linecap="round" stroke-linejoin="round"/>
<path d="M32.4761 13.5713H48.3332C49.9901 13.5713 51.3332 14.9144 51.3332 16.5713V43.9522H32.4761V13.5713Z" fill="#FFD550" stroke="#141414" stroke-width="2" stroke-linecap="round" stroke-linejoin="round"/>
<path d="M13.6187 10.4287H20.952" stroke="#141414" stroke-width="2" stroke-linecap="round" stroke-linejoin="round"/>
<path d="M1.04736 40.8096L1.04736 26.1429" stroke="#141414" stroke-width="2" stroke-linecap="round" stroke-linejoin="round"/>
<path d="M55.5234 30.3335L55.5234 15.6668" stroke="#141414" stroke-width="2" stroke-linecap="round" stroke-linejoin="round"/>
<path d="M35.6187 9.38086L42.952 9.38086" stroke="#141414" stroke-width="2" stroke-linecap="round" stroke-linejoin="round"/>
<path d="M16.7617 26.1431H24.0951" stroke="#141414" stroke-width="2" stroke-linecap="round" stroke-linejoin="round"/>
<path d="M13.6187 35.5713H20.952" stroke="#141414" stroke-width="2" stroke-linecap="round" stroke-linejoin="round"/>
<path d="M39.8091 35.5713H43.9996" stroke="#141414" stroke-width="2" stroke-linecap="round" stroke-linejoin="round"/>
<path d="M39.8091 26.1431H43.9996" stroke="#141414" stroke-width="2" stroke-linecap="round" stroke-linejoin="round"/>
</svg>
