<svg width="21" height="20" viewBox="0 0 21 20" fill="none" xmlns="http://www.w3.org/2000/svg">
<path d="M14.6062 2.03236C15.7033 2.03551 16.7545 2.45628 17.5302 3.20276C18.306 3.94925 18.7432 4.9608 18.7465 6.01648V13.9839C18.7432 15.0396 18.306 16.0511 17.5302 16.7976C16.7545 17.5441 15.7033 17.9649 14.6062 17.968H6.32645C5.22938 17.9649 4.17818 17.5441 3.40242 16.7976C2.62667 16.0511 2.18941 15.0396 2.18613 13.9839V6.01648C2.18941 4.9608 2.62667 3.94925 3.40242 3.20276C4.17818 2.45628 5.22938 2.03551 6.32645 2.03236H14.6062ZM14.6062 0.438965H6.32645C3.13849 0.438965 0.530273 2.94878 0.530273 6.01648V13.9839C0.530273 17.0516 3.13849 19.5614 6.32645 19.5614H14.6062C17.7942 19.5614 20.4024 17.0516 20.4024 13.9839V6.01648C20.4024 2.94878 17.7942 0.438965 14.6062 0.438965Z" fill="#091242"/>
<path d="M15.8484 6.01677C15.6028 6.01677 15.3627 5.94668 15.1584 5.81535C14.9542 5.68403 14.795 5.49737 14.701 5.27898C14.607 5.0606 14.5824 4.82029 14.6303 4.58846C14.6782 4.35662 14.7965 4.14366 14.9702 3.97652C15.1439 3.80937 15.3652 3.69555 15.6061 3.64943C15.8471 3.60331 16.0968 3.62698 16.3237 3.71744C16.5507 3.8079 16.7447 3.96108 16.8811 4.15763C17.0176 4.35417 17.0904 4.58524 17.0904 4.82162C17.0908 4.97866 17.0589 5.13423 16.9966 5.27938C16.9343 5.42454 16.8429 5.55642 16.7275 5.66747C16.6121 5.77852 16.475 5.86654 16.3242 5.92648C16.1733 5.98642 16.0116 6.01711 15.8484 6.01677ZM10.4666 6.81325C11.1216 6.81325 11.762 7.00018 12.3067 7.3504C12.8514 7.70061 13.2759 8.19839 13.5266 8.78077C13.7773 9.36316 13.8429 10.004 13.7151 10.6223C13.5873 11.2405 13.2718 11.8084 12.8086 12.2542C12.3454 12.6999 11.7552 13.0035 11.1127 13.1264C10.4702 13.2494 9.80427 13.1863 9.19905 12.9451C8.59383 12.7038 8.07654 12.2953 7.7126 11.7712C7.34865 11.2471 7.1544 10.6308 7.1544 10.0005C7.15534 9.15544 7.5046 8.34529 8.12555 7.74777C8.74649 7.15024 9.58841 6.81416 10.4666 6.81325ZM10.4666 5.21986C9.48398 5.21986 8.52346 5.50024 7.70648 6.02554C6.88949 6.55084 6.25272 7.29747 5.87671 8.17101C5.50069 9.04455 5.4023 10.0058 5.594 10.9331C5.78569 11.8605 6.25885 12.7123 6.95364 13.3809C7.64843 14.0494 8.53365 14.5048 9.49735 14.6892C10.4611 14.8737 11.46 14.779 12.3677 14.4172C13.2755 14.0553 14.0514 13.4426 14.5973 12.6564C15.1432 11.8703 15.4346 10.946 15.4346 10.0005C15.4346 8.73257 14.9112 7.51661 13.9795 6.62007C13.0478 5.72353 11.7842 5.21986 10.4666 5.21986Z" fill="#091242"/>
</svg>
