<svg width="20" height="20" viewBox="0 0 20 20" fill="none" xmlns="http://www.w3.org/2000/svg">
<path d="M17.9713 0.291016H1.76519C0.879657 0.291016 0.105957 0.928181 0.105957 1.80331V18.0454C0.105957 18.9253 0.879657 19.7094 1.76519 19.7094H17.9665C18.8568 19.7094 19.5243 18.9201 19.5243 18.0454V1.80331C19.5295 0.928181 18.8568 0.291016 17.9713 0.291016ZM6.12522 16.4772H3.34336V7.82777H6.12522V16.4772ZM4.83051 6.51269H4.81057C3.92028 6.51269 3.3438 5.84996 3.3438 5.02034C3.3438 4.17555 3.93545 3.52842 4.84568 3.52842C5.75592 3.52842 6.3129 4.17079 6.33284 5.02034C6.3324 5.84996 5.75592 6.51269 4.83051 6.51269ZM16.2921 16.4772H13.5103V11.7478C13.5103 10.6148 13.1054 9.84069 12.099 9.84069C11.33 9.84069 10.8749 10.3608 10.6725 10.8675C10.5966 11.0496 10.5763 11.2975 10.5763 11.5506V16.4772H7.79441V7.82777H10.5763V9.03145C10.9811 8.45496 11.6135 7.62535 13.0851 7.62535C14.9112 7.62535 16.2925 8.82903 16.2925 11.4241L16.2921 16.4772Z" fill="#091242"/>
</svg>
