<svg width="180" height="35" viewBox="0 0 180 35" fill="none" xmlns="http://www.w3.org/2000/svg">
<path d="M16.0489 3.46221C16.3483 2.5409 17.6517 2.5409 17.9511 3.46221L20.5922 11.5909C20.7261 12.0029 21.1101 12.2819 21.5433 12.2819L30.0903 12.2819C31.059 12.2819 31.4618 13.5215 30.6781 14.0909L23.7634 19.1147C23.4129 19.3693 23.2663 19.8207 23.4001 20.2327L26.0413 28.3614C26.3406 29.2827 25.2862 30.0488 24.5025 29.4794L17.5878 24.4556C17.2373 24.201 16.7627 24.201 16.4122 24.4556L9.49755 29.4794C8.71383 30.0488 7.65936 29.2827 7.95871 28.3614L10.5999 20.2327C10.7337 19.8207 10.5871 19.3693 10.2366 19.1147L3.32194 14.0909C2.53822 13.5215 2.941 12.2819 3.90972 12.2819L12.4567 12.2819C12.8899 12.2819 13.2739 12.0029 13.4078 11.5909L16.0489 3.46221Z" fill="#FDAF3B"/>
<path d="M53.0489 3.46221C53.3483 2.5409 54.6517 2.5409 54.9511 3.46221L57.5922 11.5909C57.7261 12.0029 58.1101 12.2819 58.5433 12.2819L67.0903 12.2819C68.059 12.2819 68.4618 13.5215 67.6781 14.0909L60.7634 19.1147C60.4129 19.3693 60.2663 19.8207 60.4001 20.2327L63.0413 28.3614C63.3406 29.2827 62.2862 30.0488 61.5025 29.4794L54.5878 24.4556C54.2373 24.201 53.7627 24.201 53.4122 24.4556L46.4975 29.4794C45.7138 30.0488 44.6594 29.2827 44.9587 28.3614L47.5999 20.2327C47.7337 19.8207 47.5871 19.3693 47.2366 19.1147L40.3219 14.0909C39.5382 13.5215 39.941 12.2819 40.9097 12.2819L49.4567 12.2819C49.8899 12.2819 50.2739 12.0029 50.4078 11.5909L53.0489 3.46221Z" fill="#FDAF3B"/>
<path d="M89.0489 3.46221C89.3483 2.5409 90.6517 2.5409 90.9511 3.46221L93.5922 11.5909C93.7261 12.0029 94.1101 12.2819 94.5433 12.2819L103.09 12.2819C104.059 12.2819 104.462 13.5215 103.678 14.0909L96.7634 19.1147C96.4129 19.3693 96.2663 19.8207 96.4001 20.2327L99.0413 28.3614C99.3406 29.2827 98.2862 30.0488 97.5025 29.4794L90.5878 24.4556C90.2373 24.201 89.7627 24.201 89.4122 24.4556L82.4975 29.4794C81.7138 30.0488 80.6594 29.2827 80.9587 28.3614L83.5999 20.2327C83.7337 19.8207 83.5871 19.3693 83.2366 19.1147L76.3219 14.0909C75.5382 13.5215 75.941 12.2819 76.9097 12.2819L85.4567 12.2819C85.8899 12.2819 86.2739 12.0029 86.4078 11.5909L89.0489 3.46221Z" fill="#FDAF3B"/>
<path d="M125.049 3.46221C125.348 2.5409 126.652 2.5409 126.951 3.46221L129.592 11.5909C129.726 12.0029 130.11 12.2819 130.543 12.2819L139.09 12.2819C140.059 12.2819 140.462 13.5215 139.678 14.0909L132.763 19.1147C132.413 19.3693 132.266 19.8207 132.4 20.2327L135.041 28.3614C135.341 29.2827 134.286 30.0488 133.502 29.4794L126.588 24.4556C126.237 24.201 125.763 24.201 125.412 24.4556L118.498 29.4794C117.714 30.0488 116.659 29.2827 116.959 28.3614L119.6 20.2327C119.734 19.8207 119.587 19.3693 119.237 19.1147L112.322 14.0909C111.538 13.5215 111.941 12.2819 112.91 12.2819L121.457 12.2819C121.89 12.2819 122.274 12.0029 122.408 11.5909L125.049 3.46221Z" fill="#FDAF3B"/>
<path d="M162.049 3.46221C162.348 2.5409 163.652 2.5409 163.951 3.46221L166.592 11.5909C166.726 12.0029 167.11 12.2819 167.543 12.2819L176.09 12.2819C177.059 12.2819 177.462 13.5215 176.678 14.0909L169.763 19.1147C169.413 19.3693 169.266 19.8207 169.4 20.2327L172.041 28.3614C172.341 29.2827 171.286 30.0488 170.502 29.4794L163.588 24.4556C163.237 24.201 162.763 24.201 162.412 24.4556L155.498 29.4794C154.714 30.0488 153.659 29.2827 153.959 28.3614L156.6 20.2327C156.734 19.8207 156.587 19.3693 156.237 19.1147L149.322 14.0909C148.538 13.5215 148.941 12.2819 149.91 12.2819L158.457 12.2819C158.89 12.2819 159.274 12.0029 159.408 11.5909L162.049 3.46221Z" fill="#FDAF3B"/>
</svg>
