<svg width="52" height="52" viewBox="0 0 52 52" fill="none" xmlns="http://www.w3.org/2000/svg">
<path d="M25.8043 0L27.283 17.4183L34.6299 1.55619L30.062 18.4297L42.391 6.03706L32.3275 20.3307L48.1515 12.9022L33.8062 22.8919L51.2166 21.3234L34.3197 25.8043L51.2166 30.2852L33.8062 28.7168L48.1515 38.7065L32.3275 31.2779L42.391 45.5716L30.062 33.1789L34.6299 50.0525L27.283 34.1904L25.8043 51.6086L24.3256 34.1904L16.9787 50.0525L21.5466 33.1789L9.21762 45.5716L19.2811 31.2779L3.45712 38.7065L17.8024 28.7168L0.392025 30.2852L17.2889 25.8043L0.392025 21.3234L17.8024 22.8919L3.45712 12.9022L19.2811 20.3307L9.21762 6.03706L21.5466 18.4297L16.9787 1.55619L24.3256 17.4183L25.8043 0Z" fill="white"/>
</svg>
