<svg width="21" height="16" viewBox="0 0 21 16" fill="none" xmlns="http://www.w3.org/2000/svg">
<path d="M20.1064 2.1537C19.3873 2.46592 18.6265 2.67161 17.848 2.76428C18.6662 2.28554 19.2814 1.52498 19.5784 0.625233C18.8049 1.07722 17.96 1.39436 17.08 1.56306C16.7095 1.17497 16.2638 0.866237 15.7701 0.65562C15.2764 0.445004 14.745 0.336906 14.2082 0.337897C12.0349 0.337897 10.2761 2.06989 10.2761 4.20495C10.2746 4.50193 10.3086 4.79802 10.3775 5.08691C8.8191 5.0139 7.29307 4.61663 5.89708 3.92051C4.5011 3.22439 3.26589 2.24475 2.27048 1.04426C1.92127 1.63255 1.73659 2.30377 1.73574 2.98777C1.73574 4.32866 2.43582 5.51392 3.49293 6.20832C2.86662 6.19346 2.25315 6.02781 1.70459 5.72543V5.77332C1.70459 7.64898 3.06242 9.20937 4.85955 9.56455C4.5216 9.65458 4.17335 9.70019 3.8236 9.70024C3.57543 9.70067 3.32782 9.67661 3.08438 9.6284C3.58398 11.1648 5.03806 12.2823 6.76051 12.3142C5.3609 13.3921 3.64254 13.9746 1.87551 13.9704C1.56186 13.9699 1.2485 13.9512 0.937012 13.9145C2.73461 15.0615 4.82418 15.6682 6.957 15.6624C14.1998 15.6624 18.1567 9.76808 18.1567 4.65591C18.1567 4.4883 18.1523 4.32068 18.1443 4.15706C18.9123 3.61115 19.5768 2.93274 20.1064 2.1537Z" fill="#091242"/>
</svg>
